<svg width="29" height="29" viewBox="0 0 29 29" fill="none" xmlns="http://www.w3.org/2000/svg">
			<g clip-path="url(#clip0_25103_188393)">
				<mask id="mask0_25103_188393" style="mask-type:alpha" maskUnits="userSpaceOnUse" x="3" y="4" width="23"
					height="23">
					<path
						d="M14.4971 26.0453C20.4772 26.0453 25.325 21.1726 25.325 15.1618C25.325 9.15102 20.4772 4.27832 14.4971 4.27832C8.51708 4.27832 3.66929 9.15102 3.66929 15.1618C3.66929 21.1726 8.51708 26.0453 14.4971 26.0453Z"
						fill="white" />
				</mask>
				<g mask="url(#mask0_25103_188393)">
					<circle cx="19.1431" cy="10.523" r="10.4098" fill="url(#paint0_radial_25103_188393)" fill-opacity="0.2" />
					<circle opacity="0.5" cx="12.9735" cy="15.6793" r="12.4699" fill="url(#paint1_radial_25103_188393)"
						fill-opacity="0.4" />
					<path fill-rule="evenodd" clip-rule="evenodd"
						d="M3.82918 10.2183L3.82645 10.2191L3.82718 10.2218L3.82918 10.2183ZM3.94542 10.6631L3.94672 10.668L3.95158 10.6667L3.94542 10.6631ZM4.37368 10.5536L4.37609 10.5529L4.37545 10.5505L4.37368 10.5536ZM4.2559 10.1043L4.25551 10.1041L4.25581 10.104L4.2559 10.1043ZM3.95764 10.4234C4.01111 10.3781 4.04901 10.317 4.06596 10.2493C4.11446 10.2994 4.17784 10.3334 4.24677 10.3459C4.1933 10.3911 4.15539 10.4523 4.13846 10.5199C4.08996 10.4698 4.02657 10.4358 3.95764 10.4234Z"
						fill="white" />
					<path fill-rule="evenodd" clip-rule="evenodd"
						d="M7.86407 10.1969L7.86162 10.1976L7.86227 10.2001L7.86407 10.1969ZM7.98056 10.6415L7.9819 10.6465L7.98689 10.6451L7.98056 10.6415ZM8.40857 10.5322L8.41126 10.5314L8.41054 10.5287L8.40857 10.5322ZM8.29103 10.0827L8.29082 10.0826L8.29099 10.0825L8.29103 10.0827ZM7.99268 10.4017C8.04615 10.3564 8.08405 10.2953 8.101 10.2276C8.1495 10.2778 8.21289 10.3118 8.28181 10.3242C8.22834 10.3694 8.19043 10.4306 8.1735 10.4982C8.125 10.4481 8.06161 10.4141 7.99268 10.4017Z"
						fill="white" />
					<path fill-rule="evenodd" clip-rule="evenodd"
						d="M12.9895 10.6511L12.9871 10.6517L12.9877 10.6541L12.9895 10.6511ZM13.106 11.0955L13.1073 11.1006L13.1124 11.0992L13.106 11.0955ZM13.534 10.9863L13.5367 10.9855L13.536 10.9828L13.534 10.9863ZM13.4165 10.5368L13.4163 10.5367L13.4164 10.5367L13.4165 10.5368ZM13.1181 10.8557C13.1716 10.8105 13.2095 10.7494 13.2264 10.6817C13.2749 10.7318 13.3383 10.7658 13.4073 10.7783C13.3538 10.8235 13.3159 10.8846 13.2989 10.9523C13.2504 10.9022 13.1871 10.8682 13.1181 10.8557Z"
						fill="white" />
					<path fill-rule="evenodd" clip-rule="evenodd"
						d="M3.53423 18.0928L3.53048 18.0938L3.53148 18.0975L3.53423 18.0928ZM3.72381 18.8153L3.7262 18.8242L3.73515 18.8218L3.72381 18.8153ZM4.42027 18.6382L4.42366 18.6324L4.4249 18.637L4.42027 18.6382ZM3.74391 18.4252C3.83092 18.3516 3.89259 18.2521 3.92016 18.142C3.99909 18.2236 4.10224 18.2789 4.2144 18.2992C4.12739 18.3728 4.06569 18.4723 4.03815 18.5824C3.95922 18.5008 3.85607 18.4455 3.74391 18.4252Z"
						fill="white" />
					<path fill-rule="evenodd" clip-rule="evenodd"
						d="M4.92166 12.1472L4.92044 12.1475L4.92076 12.1487L4.92166 12.1472ZM4.98956 12.4055L4.99042 12.4087L4.99363 12.4078L4.98956 12.4055ZM5.23846 12.3422L5.23976 12.34L5.24023 12.3418L5.23846 12.3422ZM4.99668 12.266C5.02778 12.2397 5.04983 12.2041 5.05969 12.1647C5.08791 12.1939 5.12479 12.2137 5.1649 12.2209C5.13379 12.2472 5.11173 12.2828 5.10188 12.3222C5.07366 12.293 5.03678 12.2732 4.99668 12.266Z"
						fill="white" />
					<path fill-rule="evenodd" clip-rule="evenodd"
						d="M5.14569 9.39384L5.14472 9.3941L5.14498 9.39508L5.14569 9.39384ZM5.21372 9.65163L5.2147 9.65527L5.21834 9.6543L5.21372 9.65163ZM5.46249 9.58888L5.46397 9.58631L5.46451 9.58834L5.46249 9.58888ZM5.22096 9.51221C5.25207 9.48588 5.27412 9.45032 5.28397 9.41095C5.3122 9.44012 5.34907 9.45989 5.38918 9.46713C5.35807 9.49346 5.33601 9.52903 5.32616 9.56839C5.29794 9.53923 5.26106 9.51945 5.22096 9.51221Z"
						fill="white" />
					<path fill-rule="evenodd" clip-rule="evenodd"
						d="M7.97593 12.7732L7.97474 12.7735L7.97505 12.7747L7.97593 12.7732ZM8.04384 13.0314L8.04472 13.0347L8.04798 13.0338L8.04384 13.0314ZM8.29273 12.9682L8.29405 12.9659L8.29453 12.9677L8.29273 12.9682ZM8.05097 12.8919C8.08208 12.8656 8.10413 12.83 8.11399 12.7907C8.14221 12.8198 8.17909 12.8396 8.2192 12.8468C8.18809 12.8732 8.16602 12.9087 8.15618 12.9481C8.12796 12.9189 8.09108 12.8992 8.05097 12.8919Z"
						fill="white" />
					<path fill-rule="evenodd" clip-rule="evenodd"
						d="M5.93788 10.9133L5.93674 10.9136L5.93705 10.9148L5.93788 10.9133ZM6.00582 11.1714L6.00672 11.1748L6.01009 11.1739L6.00582 11.1714ZM6.25468 11.1084L6.25604 11.106L6.25654 11.1079L6.25468 11.1084ZM6.01298 11.032C6.04409 11.0057 6.06614 10.9701 6.076 10.9307C6.10422 10.9599 6.1411 10.9797 6.18121 10.9869C6.1501 11.0132 6.12804 11.0488 6.11819 11.0882C6.08997 11.059 6.05309 11.0392 6.01298 11.032Z"
						fill="white" />
					<path fill-rule="evenodd" clip-rule="evenodd"
						d="M7.52165 8.56519L7.52053 8.56549L7.52083 8.56661L7.52165 8.56519ZM7.58961 8.82327L7.59052 8.82666L7.59391 8.82575L7.58961 8.82327ZM7.83845 8.76023L7.83983 8.75785L7.84033 8.75972L7.83845 8.76023ZM7.59677 8.68381C7.62788 8.65748 7.64993 8.62192 7.65979 8.58255C7.68801 8.61171 7.72489 8.63149 7.765 8.63873C7.73389 8.66506 7.71183 8.70062 7.70198 8.73999C7.67376 8.71082 7.63688 8.69105 7.59677 8.68381Z"
						fill="white" />
					<path fill-rule="evenodd" clip-rule="evenodd"
						d="M9.69734 10.5799L9.69637 10.5801L9.69663 10.5811L9.69734 10.5799ZM9.76537 10.8377L9.76635 10.8413L9.76999 10.8403L9.76537 10.8377ZM10.0141 10.7749L10.0156 10.7723L10.0162 10.7744L10.0141 10.7749ZM9.77261 10.6982C9.80372 10.6719 9.82577 10.6364 9.83563 10.597C9.86385 10.6261 9.90072 10.6459 9.94083 10.6532C9.90972 10.6795 9.88766 10.7151 9.87781 10.7544C9.84959 10.7253 9.81271 10.7055 9.77261 10.6982Z"
						fill="white" />
					<path fill-rule="evenodd" clip-rule="evenodd"
						d="M11.0892 12.9016L11.0881 12.9019L11.0884 12.903L11.0892 12.9016ZM11.1571 13.1596L11.1581 13.1631L11.1615 13.1622L11.1571 13.1596ZM11.406 13.0967L11.4074 13.0942L11.4079 13.0961L11.406 13.0967ZM11.1643 13.0202C11.1954 12.9938 11.2175 12.9583 11.2273 12.9189C11.2556 12.9481 11.2924 12.9679 11.3326 12.9751C11.3014 13.0014 11.2794 13.037 11.2695 13.0764C11.2413 13.0472 11.2044 13.0274 11.1643 13.0202Z"
						fill="white" />
					<path fill-rule="evenodd" clip-rule="evenodd"
						d="M11.706 8.02172L11.7048 8.02203L11.7051 8.0232L11.706 8.02172ZM11.7739 8.2799L11.7748 8.2832L11.7781 8.28232L11.7739 8.2799ZM12.0228 8.21676L12.0241 8.21443L12.0246 8.21627L12.0228 8.21676ZM11.7811 8.14042C11.8122 8.11409 11.8342 8.07853 11.8441 8.03916C11.8723 8.06833 11.9092 8.0881 11.9493 8.09534C11.9182 8.12167 11.8961 8.15724 11.8863 8.1966C11.858 8.16744 11.8212 8.14766 11.7811 8.14042Z"
						fill="white" />
					<path fill-rule="evenodd" clip-rule="evenodd"
						d="M18.958 5.00663V5.00342H18.9548L18.958 5.00663ZM18.4068 5.00342H18.4006V5.00967L18.4068 5.00342ZM18.4006 5.53344V5.53662H18.4037L18.4006 5.53344ZM18.9578 5.53662L18.958 5.53646V5.53662H18.9578ZM18.6808 5.09203C18.7166 5.16803 18.7757 5.23091 18.8488 5.27155C18.7757 5.31219 18.7166 5.37508 18.6808 5.45108C18.645 5.37508 18.5859 5.31217 18.5128 5.27155C18.5859 5.23091 18.645 5.16803 18.6808 5.09203Z"
						fill="white" />
					<path fill-rule="evenodd" clip-rule="evenodd"
						d="M25.5359 9.46507V9.46191H25.5328L25.5359 9.46507ZM24.9849 9.46191H24.9785V9.46836L24.9849 9.46191ZM24.9785 9.99188L24.9817 9.99512H24.9785V9.99188ZM25.2589 9.5506C25.2947 9.6266 25.3537 9.68948 25.4269 9.73012C25.3537 9.77076 25.2947 9.83365 25.2589 9.90965C25.223 9.83365 25.164 9.77074 25.0908 9.73012C25.164 9.68948 25.223 9.6266 25.2589 9.5506Z"
						fill="white" />
					<path fill-rule="evenodd" clip-rule="evenodd"
						d="M24.3096 14.1479V14.1445H24.3063L24.3096 14.1479ZM23.7585 14.1445H23.7522V14.1509L23.7585 14.1445ZM23.7522 14.6747V14.6777H23.7552L23.7522 14.6747ZM24.3095 14.6777L24.3096 14.6777V14.6777H24.3095ZM24.0324 14.2332C24.0682 14.3092 24.1273 14.3721 24.2004 14.4128C24.1273 14.4534 24.0682 14.5163 24.0324 14.5923C23.9966 14.5163 23.9375 14.4534 23.8644 14.4128C23.9375 14.3721 23.9966 14.3092 24.0324 14.2332Z"
						fill="white" />
					<path fill-rule="evenodd" clip-rule="evenodd"
						d="M22.1913 19.9459V19.9429H22.1883L22.1913 19.9459ZM21.6399 19.9429H21.6339V19.9489L21.6399 19.9429ZM21.6339 20.4727V20.4761H21.6373L21.6339 20.4727ZM22.191 20.4761L22.1913 20.4757V20.4761H22.191ZM21.9141 20.0313C21.9499 20.1073 22.009 20.1701 22.0821 20.2108C22.009 20.2514 21.9499 20.3143 21.9141 20.3903C21.8783 20.3143 21.8192 20.2514 21.7461 20.2108C21.8192 20.1701 21.8783 20.1073 21.9141 20.0313Z"
						fill="white" />
					<path fill-rule="evenodd" clip-rule="evenodd"
						d="M16.5053 6.68236V6.67676H16.4997L16.5053 6.68236ZM15.6091 6.67676H15.5982V6.68766L15.6091 6.67676ZM15.5982 7.53962L15.603 7.54442H15.5982V7.53962ZM16.0544 6.8215C16.1127 6.94517 16.2088 7.04751 16.3278 7.11364C16.2088 7.17977 16.1127 7.2821 16.0544 7.40578C15.9961 7.2821 15.9 7.17973 15.781 7.11364C15.9 7.04751 15.9961 6.94517 16.0544 6.8215Z"
						fill="white" />
					<path fill-rule="evenodd" clip-rule="evenodd"
						d="M24.1879 7.57084V7.56934H24.1864L24.1879 7.57084ZM23.8671 7.56934H23.8636V7.57288L23.8671 7.56934ZM23.8636 7.87734V7.87956H23.8658L23.8636 7.87734ZM24.1877 7.87956L24.1879 7.87938V7.87956H24.1877ZM24.0267 7.62066C24.0476 7.66488 24.0819 7.70147 24.1245 7.72511C24.0819 7.74876 24.0476 7.78535 24.0267 7.82956C24.0059 7.78535 23.9715 7.74874 23.929 7.72511C23.9715 7.70147 24.0059 7.66488 24.0267 7.62066Z"
						fill="white" />
					<path fill-rule="evenodd" clip-rule="evenodd"
						d="M22.9615 10.133V10.1313H22.9598L22.9615 10.133ZM22.6406 10.1313H22.6372V10.1348L22.6406 10.1313ZM22.6372 10.4395V10.4416H22.6392L22.6372 10.4395ZM22.9612 10.4416L22.9615 10.4413V10.4416H22.9612ZM22.8002 10.1827C22.8211 10.2269 22.8554 10.2635 22.898 10.2872C22.8554 10.3108 22.8211 10.3474 22.8002 10.3916C22.7794 10.3474 22.745 10.3108 22.7025 10.2872C22.745 10.2635 22.7794 10.2269 22.8002 10.1827Z"
						fill="white" />
					<path fill-rule="evenodd" clip-rule="evenodd"
						d="M21.2893 13.479V13.4775H21.2878L21.2893 13.479ZM20.9685 13.4775H20.9649V13.4811L20.9685 13.4775ZM20.9649 13.7855V13.7878H20.9672L20.9649 13.7855ZM21.2891 13.7878L21.2893 13.7876V13.7878H21.2891ZM21.1281 13.5289C21.149 13.5731 21.1833 13.6097 21.2259 13.6333C21.1833 13.657 21.149 13.6936 21.1281 13.7378C21.1073 13.6936 21.0729 13.657 21.0304 13.6333C21.0729 13.6097 21.1073 13.5731 21.1281 13.5289Z"
						fill="white" />
					<path fill-rule="evenodd" clip-rule="evenodd"
						d="M24.0765 11.6945V11.6929H24.0748L24.0765 11.6945ZM23.7559 11.6929H23.7522V11.6966L23.7559 11.6929ZM23.7522 12.001V12.0031H23.7542L23.7522 12.001ZM24.0765 12.0031L24.0765 12.0031V12.0031H24.0765ZM23.9153 11.7444C23.9362 11.7886 23.9705 11.8252 24.0131 11.8488C23.9705 11.8724 23.9362 11.909 23.9153 11.9533C23.8945 11.909 23.8601 11.8724 23.8176 11.8488C23.8601 11.8252 23.8945 11.7886 23.9153 11.7444Z"
						fill="white" />
					<path fill-rule="evenodd" clip-rule="evenodd"
						d="M23.296 16.1544V16.1523H23.2939L23.296 16.1544ZM22.9755 16.1523H22.9716V16.1562L22.9755 16.1523ZM22.9716 16.4609L22.9733 16.4626H22.9716V16.4609ZM23.1347 16.2041C23.1555 16.2483 23.1899 16.2849 23.2325 16.3086C23.1899 16.3322 23.1555 16.3688 23.1347 16.413C23.1139 16.3688 23.0795 16.3322 23.037 16.3086C23.0795 16.2849 23.1139 16.2483 23.1347 16.2041Z"
						fill="white" />
					<path fill-rule="evenodd" clip-rule="evenodd"
						d="M20.1742 17.0463V17.0444H20.1724L20.1742 17.0463ZM19.8537 17.0444H19.8499V17.0483L19.8537 17.0444ZM19.8499 17.3528L19.8517 17.3547H19.8499V17.3528ZM20.013 17.0961C20.0339 17.1403 20.0682 17.1769 20.1108 17.2005C20.0682 17.2242 20.0339 17.2608 20.013 17.305C19.9922 17.2608 19.9578 17.2242 19.9153 17.2005C19.9578 17.1769 19.9922 17.1403 20.013 17.0961Z"
						fill="white" />
					<path fill-rule="evenodd" clip-rule="evenodd"
						d="M25.6372 19.2771V19.2754H25.6355L25.6372 19.2771ZM25.3166 19.2754H25.3129V19.2791L25.3166 19.2754ZM25.3129 19.5836V19.5856H25.3149L25.3129 19.5836ZM25.6372 19.5856L25.6372 19.5856V19.5856H25.6372ZM25.476 19.3269C25.4969 19.3711 25.5312 19.4077 25.5738 19.4313C25.5312 19.455 25.4969 19.4916 25.476 19.5358C25.4552 19.4916 25.4208 19.455 25.3783 19.4313C25.4208 19.4077 25.4552 19.3711 25.476 19.3269Z"
						fill="white" />
					<path
						d="M15.906 6.45508L15.9072 8.08045L17.5325 8.0816L15.9072 8.08275L15.906 9.70813L15.9049 8.08275L14.2795 8.0816L15.9049 8.08045L15.906 6.45508Z"
						fill="#E2A503" />
					<path
						d="M15.4707 6.45508L15.4719 8.08045L17.0972 8.0816L15.4719 8.08275L15.4707 9.70813L15.4696 8.08275L13.8442 8.0816L15.4696 8.08045L15.4707 6.45508Z"
						fill="white" />
				</g>
				<path
					d="M14.0037 8.25323C12.5054 9.89877 10.8214 11.8658 6.76602 12.7698C6.28709 12.8607 5.91138 13.1949 5.69926 13.5623L5.00986 14.7564L10.31 17.8164L15.8546 7.79096L14.0037 8.25323Z"
					fill="#DCE1E8" />
				<path
					d="M14.0037 8.25323C12.5054 9.89877 10.8214 11.8658 6.76602 12.7698C6.28709 12.8607 5.91138 13.1949 5.69926 13.5623L5.00986 14.7564L10.31 17.8164L15.8546 7.79096L14.0037 8.25323Z"
					fill="url(#paint2_linear_25103_188393)" />
				<path
					d="M20.1264 11.7882C19.4505 13.9085 18.589 16.3504 19.8338 20.3145C19.9945 20.7747 19.893 21.2672 19.6809 21.6346L18.9915 22.8286L13.6913 19.7686L19.6014 9.95415L20.1264 11.7882Z"
					fill="#C6CFDE" />
				<path
					d="M20.1264 11.7882C19.4505 13.9085 18.589 16.3504 19.8338 20.3145C19.9945 20.7747 19.893 21.2672 19.6809 21.6346L18.9915 22.8286L13.6913 19.7686L19.6014 9.95415L20.1264 11.7882Z"
					fill="url(#paint3_linear_25103_188393)" />
				<path
					d="M20.8812 10.7379C19.0322 13.9404 15.1466 20.6704 15.1466 20.6704L8.86662 17.0446C8.86662 17.0446 12.7522 10.3147 14.6012 7.11214C16.4501 3.9096 18.7197 3.17775 21.4659 2.47352C21.776 3.6427 22.0205 4.71214 22.1191 5.82109C22.2416 7.31517 21.9798 8.83493 20.8812 10.7379Z"
					fill="#FAFBFF" />
				<path
					d="M20.8812 10.7379C19.0322 13.9404 15.1466 20.6704 15.1466 20.6704L8.86662 17.0446C8.86662 17.0446 12.7522 10.3147 14.6012 7.11214C16.4501 3.9096 18.7197 3.17775 21.4659 2.47352C21.776 3.6427 22.0205 4.71214 22.1191 5.82109C22.2416 7.31517 21.9798 8.83493 20.8812 10.7379Z"
					fill="url(#paint4_linear_25103_188393)" fill-opacity="0.2" />
				<path
					d="M20.8812 10.7379C19.0322 13.9404 15.1466 20.6704 15.1466 20.6704L8.86662 17.0446C8.86662 17.0446 12.7522 10.3147 14.6012 7.11214C16.4501 3.9096 18.7197 3.17775 21.4659 2.47352C21.776 3.6427 22.0205 4.71214 22.1191 5.82109C22.2416 7.31517 21.9798 8.83493 20.8812 10.7379Z"
					fill="url(#paint5_linear_25103_188393)" />
				<path
					d="M20.7134 10.8488C18.8935 14.0009 15.0692 20.6249 15.0692 20.6249L12.933 19.3916C13.0195 19.137 13.1777 18.8629 13.336 18.5888C13.7052 17.9492 14.1008 17.264 14.4965 16.5787C14.7338 16.1676 14.9976 15.7108 15.4549 15.5484C15.6968 15.4444 15.9767 15.4843 16.264 15.4065C16.7932 15.2247 17.1097 14.6765 17.3734 14.2197C18.2247 12.6402 19.076 11.0608 19.9273 9.48134C20.2438 8.93315 20.5412 8.31304 20.8577 7.76485C21.016 7.49075 21.2006 7.17098 21.3134 6.87064C21.4453 6.64223 21.5654 6.22429 21.8145 6.00267C21.9127 5.93754 21.9846 5.9181 22.03 5.94434C22.0524 7.48001 21.7947 8.97584 20.7134 10.8488Z"
					fill="#DFE4ED" />
				<g opacity="0.3">
					<path
						d="M10.0035 17.6644L8.26723 16.662C8.13016 16.5829 8.09181 16.4383 8.17136 16.3005L9.73625 13.59C10.0809 12.993 10.8752 12.778 11.4692 13.1209C12.0632 13.4638 12.2741 14.2592 11.9294 14.8562L10.3645 17.5667C10.3572 17.6849 10.1406 17.7436 10.0035 17.6644Z"
						fill="#F7F9FF" />
					<path
						d="M10.0035 17.6644L8.26723 16.662C8.13016 16.5829 8.09181 16.4383 8.17136 16.3005L9.73625 13.59C10.0809 12.993 10.8752 12.778 11.4692 13.1209C12.0632 13.4638 12.2741 14.2592 11.9294 14.8562L10.3645 17.5667C10.3572 17.6849 10.1406 17.7436 10.0035 17.6644Z"
						fill="#C9D6EC" />
				</g>
				<g opacity="0.46">
					<path
						d="M16.1629 21.1805L14.4267 20.178C14.2896 20.0989 14.2512 19.9543 14.3308 19.8165L15.8326 17.3959C16.1773 16.7989 16.9716 16.5839 17.5656 16.9268C18.1596 17.2698 18.3705 18.0651 18.0258 18.6622L16.524 21.0827C16.5166 21.201 16.3 21.2596 16.1629 21.1805Z"
						fill="#F7F9FF" />
					<path
						d="M16.1629 21.1805L14.4267 20.178C14.2896 20.0989 14.2512 19.9543 14.3308 19.8165L15.8326 17.3959C16.1773 16.7989 16.9716 16.5839 17.5656 16.9268C18.1596 17.2698 18.3705 18.0651 18.0258 18.6622L16.524 21.0827C16.5166 21.201 16.3 21.2596 16.1629 21.1805Z"
						fill="#6D7B92" />
				</g>
				<g opacity="0.1">
					<path
						d="M15.5195 20.8748L13.7832 19.8724C13.6461 19.7932 13.6078 19.6486 13.6873 19.5108L15.1892 17.0903C15.5339 16.4932 16.3281 16.2782 16.9221 16.6212C17.5161 16.9641 17.7271 17.7595 17.3824 18.3565L15.8805 20.7771C15.8732 20.8953 15.6565 20.9539 15.5195 20.8748Z"
						fill="#F7F9FF" />
					<path
						d="M15.5195 20.8748L13.7832 19.8724C13.6461 19.7932 13.6078 19.6486 13.6873 19.5108L15.1892 17.0903C15.5339 16.4932 16.3281 16.2782 16.9221 16.6212C17.5161 16.9641 17.7271 17.7595 17.3824 18.3565L15.8805 20.7771C15.8732 20.8953 15.6565 20.9539 15.5195 20.8748Z"
						fill="#6D7B92" />
				</g>
				<path
					d="M8.94749 18.5035L7.21122 17.501C7.07415 17.4219 7.0358 17.2773 7.11535 17.1395L9.18353 13.5573C9.52823 12.9603 10.3225 12.7453 10.9165 13.0882C11.5105 13.4311 11.7214 14.2265 11.3767 14.8235L9.30852 18.4057C9.30118 18.524 9.08456 18.5826 8.94749 18.5035Z"
					fill="#F7F9FF" />
				<path
					d="M8.94749 18.5035L7.21122 17.501C7.07415 17.4219 7.0358 17.2773 7.11535 17.1395L9.18353 13.5573C9.52823 12.9603 10.3225 12.7453 10.9165 13.0882C11.5105 13.4311 11.7214 14.2265 11.3767 14.8235L9.30852 18.4057C9.30118 18.524 9.08456 18.5826 8.94749 18.5035Z"
					fill="url(#paint6_linear_25103_188393)" />
				<path
					d="M15.2401 22.254L13.5038 21.2515C13.3668 21.1724 13.3284 21.0278 13.408 20.89L15.4761 17.3078C15.8208 16.7107 16.6151 16.4957 17.2091 16.8387C17.8031 17.1816 18.014 17.977 17.6693 18.574L15.6011 22.1562C15.5481 22.2481 15.3772 22.3331 15.2401 22.254Z"
					fill="#F7F9FF" />
				<path
					d="M15.2401 22.254L13.5038 21.2515C13.3668 21.1724 13.3284 21.0278 13.408 20.89L15.4761 17.3078C15.8208 16.7107 16.6151 16.4957 17.2091 16.8387C17.8031 17.1816 18.014 17.977 17.6693 18.574L15.6011 22.1562C15.5481 22.2481 15.3772 22.3331 15.2401 22.254Z"
					fill="url(#paint7_linear_25103_188393)" />
				<path
					d="M17.6954 18.5279L15.6273 22.1101C15.5477 22.2479 15.4033 22.287 15.2662 22.2079L14.9464 22.0232L16.7494 18.9003C17.0338 18.5133 17.181 18.0472 17.119 17.5215C17.1145 17.2128 16.8742 16.8903 16.8697 16.5816C16.9876 16.5884 17.1247 16.6675 17.2161 16.7203C17.5359 16.905 17.7305 17.201 17.8072 17.4902C17.8839 17.7795 17.8811 18.2065 17.6954 18.5279Z"
					fill="#DBDFE6" />
				<path
					d="M11.5734 14.9947L9.50524 18.5769C9.4257 18.7147 9.28128 18.7538 9.14421 18.6747L8.82437 18.49L10.6274 15.3671C10.9117 14.9801 11.059 14.514 10.997 13.9883C10.9925 13.6796 10.7522 13.3571 10.7477 13.0484C10.8656 13.0552 11.0027 13.1343 11.094 13.1871C11.4139 13.3718 11.6085 13.6678 11.6852 13.957C11.7619 14.2463 11.759 14.6733 11.5734 14.9947Z"
					fill="#DBDFE6" />
				<g style="mix-blend-mode:multiply">
					<mask id="mask1_25103_188393" style="mask-type:alpha" maskUnits="userSpaceOnUse" x="8" y="2" width="15"
						height="19">
						<path
							d="M20.8415 10.7126C18.9922 13.9158 15.1058 20.6472 15.1058 20.6472L8.86689 17.0452C8.86689 17.0452 12.7533 10.3138 14.6026 7.11058C16.452 3.90736 18.7127 3.16995 21.4477 2.45873C21.7528 3.62527 21.993 4.69242 22.0878 5.79944C22.2054 7.29095 21.9404 8.80924 20.8415 10.7126Z"
							fill="url(#paint8_linear_25103_188393)" fill-opacity="0.2" />
						<path
							d="M20.8415 10.7126C18.9922 13.9158 15.1058 20.6472 15.1058 20.6472L8.86689 17.0452C8.86689 17.0452 12.7533 10.3138 14.6026 7.11058C16.452 3.90736 18.7127 3.16995 21.4477 2.45873C21.7528 3.62527 21.993 4.69242 22.0878 5.79944C22.2054 7.29095 21.9404 8.80924 20.8415 10.7126Z"
							fill="url(#paint9_linear_25103_188393)" />
					</mask>
					<g mask="url(#mask1_25103_188393)">
						<path fill-rule="evenodd" clip-rule="evenodd"
							d="M32.8996 -0.146696L18.9076 -8.48389L10.2119 6.10984L12.2278 7.31105C13.5646 5.06767 16.9115 4.59762 19.7034 6.26119C22.4953 7.92476 23.675 11.092 22.3383 13.3355L24.2038 14.447L32.8996 -0.146696Z"
							fill="#FFBE15" />
					</g>
				</g>
				<path
					d="M12.3805 23.7757C11.5946 25.1369 7.27082 26.9964 7.27082 26.9964C7.27082 26.9964 6.71931 22.3221 7.50521 20.9609C8.2911 19.5997 10.0032 19.1362 11.3575 19.9181C12.7117 20.7 13.1664 22.4145 12.3805 23.7757Z"
					fill="url(#paint10_linear_25103_188393)" />
				<path
					d="M12.1272 22.5343C11.5996 23.448 8.69712 24.6963 8.69712 24.6963C8.69712 24.6963 8.3269 21.5585 8.85446 20.6448C9.38202 19.731 10.5313 19.4199 11.4404 19.9448C12.3495 20.4696 12.6547 21.6205 12.1272 22.5343Z"
					fill="url(#paint11_linear_25103_188393)" />
				<path
					d="M11.8821 21.914C11.5239 22.5343 9.55349 23.3818 9.55349 23.3818C9.55349 23.3818 9.30215 21.2516 9.6603 20.6312C10.0185 20.0109 10.7987 19.7997 11.4159 20.156C12.033 20.5123 12.2402 21.2937 11.8821 21.914Z"
					fill="url(#paint12_linear_25103_188393)" />
				<path
					d="M11.8536 21.3247C11.6138 21.7401 10.2941 22.3076 10.2941 22.3076C10.2941 22.3076 10.1258 20.881 10.3657 20.4656C10.6055 20.0501 11.1281 19.9087 11.5414 20.1473C11.9547 20.3859 12.0935 20.9092 11.8536 21.3247Z"
					fill="url(#paint13_linear_25103_188393)" />
				<path
					d="M14.539 23.2577C14.3004 23.671 13.039 24.1674 13.039 24.1674C13.039 24.1674 12.8648 22.7809 13.0769 22.4135C13.289 22.0461 13.821 21.8634 14.2322 22.1008C14.6169 22.3841 14.7511 22.8903 14.539 23.2577Z"
					fill="url(#paint14_linear_25103_188393)" />
				<path
					d="M14.4303 22.9319C14.2555 23.2347 13.2936 23.6484 13.2936 23.6484C13.2936 23.6484 13.171 22.6086 13.3458 22.3058C13.5206 22.003 13.9015 21.8999 14.2027 22.0738C14.504 22.2477 14.6051 22.6291 14.4303 22.9319Z"
					fill="url(#paint15_linear_25103_188393)" />
				<path
					d="M14.4164 22.6433C14.2993 22.846 13.6552 23.1231 13.6552 23.1231C13.6552 23.1231 13.573 22.4267 13.6901 22.2239C13.8072 22.0211 14.0622 21.9521 14.264 22.0686C14.4658 22.185 14.5335 22.4405 14.4164 22.6433Z"
					fill="url(#paint16_linear_25103_188393)" />
				<path
					d="M8.27968 19.6444C8.04105 20.0577 6.77968 20.5542 6.77968 20.5542C6.77968 20.5542 6.60545 19.1676 6.81757 18.8002C7.02969 18.4328 7.56165 18.2501 7.97287 18.4875C8.35757 18.7708 8.49181 19.277 8.27968 19.6444Z"
					fill="url(#paint17_linear_25103_188393)" />
				<path
					d="M8.16683 19.3548C7.99201 19.6576 7.03018 20.0712 7.03018 20.0712C7.03018 20.0712 6.90749 19.0314 7.08231 18.7286C7.25714 18.4258 7.638 18.3227 7.93925 18.4967C8.24051 18.6706 8.34165 19.052 8.16683 19.3548Z"
					fill="url(#paint18_linear_25103_188393)" />
				<path
					d="M8.15308 19.0681C8.036 19.2708 7.39185 19.5479 7.39185 19.5479C7.39185 19.5479 7.30968 18.8515 7.42677 18.6487C7.54385 18.4459 7.79892 18.3769 8.00067 18.4934C8.20243 18.6098 8.27017 18.8653 8.15308 19.0681Z"
					fill="url(#paint19_linear_25103_188393)" />
				<g style="mix-blend-mode:multiply" clip-path="url(#clip1_25103_188393)">
					<g clip-path="url(#clip2_25103_188393)">
						<path
							d="M14.8622 13.2708C14.8344 13.1479 14.8546 13.0291 14.9222 12.9119C14.9907 12.7933 15.0835 12.7164 15.2039 12.6791C15.3227 12.6409 15.4411 12.6559 15.5575 12.7231C15.6725 12.7895 15.7446 12.8845 15.771 13.0065C15.7967 13.1262 15.7765 13.245 15.708 13.3636C15.6395 13.4823 15.5467 13.5592 15.4294 13.5982C15.3114 13.6349 15.193 13.6199 15.0781 13.5536C14.9616 13.4863 14.8895 13.3913 14.8622 13.2708ZM15.4978 13.2423C15.5517 13.1488 15.5234 13.0336 15.4145 12.9708C15.3041 12.907 15.1872 12.9384 15.1333 13.0318C15.0794 13.1253 15.1106 13.2422 15.221 13.3059C15.3299 13.3688 15.4447 13.3342 15.4978 13.2423Z"
							fill="#3C424B" />
						<path
							d="M15.4856 11.9361C15.4257 12.0399 15.4241 12.1438 15.4812 12.244L15.4795 12.247L15.4622 12.235L15.4516 12.2289C15.3987 12.1983 15.3464 12.2156 15.3079 12.2823L15.1812 12.5018L15.3929 12.624L15.4246 12.5692C15.4374 12.5469 15.4531 12.5441 15.4743 12.5564L15.9809 12.8489L16.1239 12.6012L15.7912 12.4091C15.7534 12.3873 15.7227 12.3636 15.7015 12.3375C15.6441 12.2728 15.636 12.2029 15.678 12.1302C15.7097 12.0753 15.7584 12.0679 15.8234 12.1054L16.1576 12.2984C16.2317 12.3412 16.2815 12.3284 16.3234 12.2557L16.4056 12.1133L15.9201 11.833C15.7311 11.7239 15.5875 11.7596 15.4856 11.9361Z"
							fill="#3C424B" />
						<path
							d="M15.467 11.3361L15.6712 11.454L15.791 11.2464L15.5869 11.1285L15.467 11.3361ZM15.8293 11.3792L15.6974 11.6076L15.9092 11.7298L15.9408 11.675C15.9528 11.6542 15.9694 11.6499 15.9906 11.6622L16.3913 11.8935C16.4654 11.9363 16.5152 11.9235 16.5571 11.8509L16.6393 11.7085L15.9966 11.3374C15.921 11.2937 15.8712 11.3066 15.8293 11.3792Z"
							fill="#3C424B" />
						<path
							d="M16.0949 11.1394C16.0611 11.0269 16.0772 10.9116 16.144 10.796C16.2048 10.6907 16.286 10.6268 16.3892 10.6053C16.4908 10.583 16.5965 10.6025 16.7024 10.6636C16.7205 10.6741 16.7454 10.6904 16.7776 10.7149L16.5096 11.1791C16.6076 11.2119 16.6947 11.1693 16.7435 11.0848C16.7786 11.024 16.7938 10.9418 16.7852 10.8379L17.0152 10.8482C17.0379 10.966 17.0085 11.1112 16.9426 11.2254C16.8707 11.35 16.7748 11.4251 16.6558 11.4533C16.5367 11.4814 16.4224 11.4629 16.3165 11.4017C16.2029 11.3401 16.1288 11.2519 16.0949 11.1394ZM16.4961 10.8707C16.4325 10.834 16.361 10.8461 16.3259 10.9069C16.29 10.9692 16.3047 11.0311 16.3693 11.0902L16.4961 10.8707Z"
							fill="#3C424B" />
						<path
							d="M16.4217 10.3845L16.4962 10.2555L16.5612 10.293C16.5914 10.3105 16.6146 10.3298 16.6146 10.3298L16.6163 10.3268C16.5536 10.2293 16.5568 10.1086 16.6176 10.0033C16.7306 9.80754 16.9581 9.77675 17.1864 9.9086C17.4208 10.0439 17.4924 10.2692 17.3829 10.459C17.3298 10.5509 17.2349 10.6069 17.1281 10.6104L17.1263 10.6134C17.1263 10.6134 17.1555 10.6223 17.1933 10.6441L17.529 10.838L17.4494 10.9759L16.4225 10.383L16.4217 10.3845ZM17.2499 10.4099C17.3158 10.2957 17.2753 10.1458 17.109 10.0497C16.9487 9.95718 16.797 9.98234 16.7277 10.1025C16.6652 10.2107 16.6856 10.357 16.8716 10.4643C17.0017 10.5394 17.1728 10.5433 17.2499 10.4099Z"
							fill="#3C424B" />
						<path
							d="M17.0636 9.2311C17.1886 9.01459 17.4506 8.93451 17.6729 9.06287C17.8968 9.19209 17.9591 9.46138 17.8358 9.67492C17.7108 9.89143 17.4473 9.97063 17.2234 9.84141C17.0011 9.71306 16.9403 9.44464 17.0636 9.2311ZM17.7148 9.60507C17.7936 9.46864 17.7482 9.2922 17.594 9.20314C17.4412 9.11495 17.2673 9.16478 17.1885 9.30121C17.1089 9.43913 17.1535 9.61321 17.3063 9.7014C17.4614 9.78898 17.636 9.7415 17.7148 9.60507Z"
							fill="#3C424B" />
						<path
							d="M17.0776 8.57471L17.1598 8.43235L17.3019 8.51442L17.2197 8.65678L17.0776 8.57471ZM17.3712 8.74026L17.4508 8.60235L18.1888 9.02844L18.1092 9.16635L17.3712 8.74026Z"
							fill="#3C424B" />
						<path
							d="M17.5407 8.44651L17.6186 8.31157L17.7184 8.36919C17.7487 8.38666 17.7718 8.40595 17.7718 8.40595L17.7735 8.40298C17.7254 8.33962 17.6664 8.1869 17.758 8.02823C17.8565 7.85769 17.9963 7.83559 18.1838 7.94386L18.6556 8.21628L18.576 8.35419L18.1359 8.1001C18.0331 8.04073 17.9403 8.01286 17.8726 8.13001C17.7913 8.27089 17.8526 8.44071 18.0038 8.52802L18.3577 8.73234L18.2781 8.87025L17.5415 8.44503L17.5407 8.44651Z"
							fill="#3C424B" />
						<path
							d="M18.1452 7.68217L18.0904 7.77708L17.9755 7.71072L18.032 7.61285L17.8218 7.49148L17.9005 7.35505L18.1108 7.47642L18.2118 7.30143L18.3267 7.36779L18.2257 7.54278L18.5554 7.73312C18.7021 7.81782 18.78 7.72833 18.8108 7.67494C18.8168 7.66456 18.8219 7.65567 18.8266 7.64057L18.9521 7.71304C18.9468 7.72578 18.9412 7.74236 18.9284 7.7646C18.8745 7.85803 18.7381 8.02445 18.4915 7.88212L18.1452 7.68217Z"
							fill="#3C424B" />
						<path
							d="M14.9603 13.5903L14.337 13.2937L14.17 13.5829C14.17 13.5829 14.5022 14.0693 14.554 14.1229L14.5522 14.1258L13.8969 14.056L13.73 14.3451L14.2198 14.6912L14.7215 15.0342L14.8233 14.8577C14.867 14.7821 14.8517 14.7318 14.7735 14.6787C14.7735 14.6787 14.3097 14.3714 14.2375 14.3356L14.2392 14.3327L14.2761 14.3421C14.3253 14.3547 14.8302 14.4267 14.8302 14.4267L14.9552 14.2102C14.9552 14.2102 14.6465 13.8125 14.5783 13.7454L14.58 13.7425L15.145 14.0351C15.2301 14.0763 15.2814 14.0644 15.3251 13.9887L15.4269 13.8123L14.9603 13.5903Z"
							fill="#3C424B" />
						<path
							d="M14.444 17.2331L14.4388 17.242C14.1051 17.8165 13.76 18.1313 13.6382 18.1677C13.5123 18.2077 13.0488 18.0884 12.459 17.7479C11.8707 17.4083 11.5341 17.0657 11.5058 16.9366C11.4764 16.8129 11.5774 16.3551 11.9072 15.7803L11.9123 15.7714C12.2461 15.1969 12.5912 14.8821 12.713 14.8457C12.8389 14.8057 13.3039 14.9258 13.8922 15.2655C14.4805 15.6051 14.8171 15.9477 14.8454 16.0768C14.8763 16.2014 14.7762 16.6577 14.444 17.2331Z"
							fill="#0361F0" />
						<path
							d="M13.5817 15.9779L12.9629 15.684L12.7977 15.9702C12.7977 15.9702 13.1271 16.451 13.1779 16.506L13.1762 16.509L12.5263 16.4402L12.3602 16.7279L12.8455 17.0714L13.3426 17.4118L13.4436 17.2368C13.4873 17.1612 13.4712 17.1123 13.3929 17.0592C13.3929 17.0592 12.9336 16.7545 12.8615 16.7188L12.8632 16.7158L12.9001 16.7253C12.9493 16.7379 13.4503 16.8096 13.4503 16.8096L13.5745 16.5946C13.5745 16.5946 13.2679 16.2001 13.1997 16.133L13.2014 16.1301L13.7619 16.4201C13.847 16.4613 13.8983 16.4494 13.9411 16.3752L14.0421 16.2002L13.5817 15.9779Z"
							fill="white" />
					</g>
				</g>
			</g>
			<defs>
				<radialGradient id="paint0_radial_25103_188393" cx="0" cy="0" r="1" gradientUnits="userSpaceOnUse"
					gradientTransform="translate(20.1633 9.47621) rotate(126.517) scale(11.7108)">
					<stop stop-color="#82AEFE" />
					<stop offset="1" stop-color="#87ACEF" stop-opacity="0" />
				</radialGradient>
				<radialGradient id="paint1_radial_25103_188393" cx="0" cy="0" r="1" gradientUnits="userSpaceOnUse"
					gradientTransform="translate(13.8102 15.7435) rotate(127.495) scale(10.7947)">
					<stop stop-color="#FEFEFF" />
					<stop offset="1" stop-color="#CAD2E8" />
				</radialGradient>
				<linearGradient id="paint2_linear_25103_188393" x1="11.1952" y1="17.5268" x2="6.69084" y2="14.9262"
					gradientUnits="userSpaceOnUse">
					<stop stop-color="#9EA9BB" />
					<stop offset="1" stop-color="#9EA9BB" stop-opacity="0" />
				</linearGradient>
				<linearGradient id="paint3_linear_25103_188393" x1="19.8046" y1="21.4446" x2="15.0964" y2="21.5892"
					gradientUnits="userSpaceOnUse">
					<stop stop-color="#95A5BE" />
					<stop offset="1" stop-color="#CED5E0" />
				</linearGradient>
				<linearGradient id="paint4_linear_25103_188393" x1="13.3496" y1="6.33361" x2="16.0196" y2="8.09191"
					gradientUnits="userSpaceOnUse">
					<stop stop-color="white" />
					<stop offset="1" stop-color="white" stop-opacity="0" />
				</linearGradient>
				<linearGradient id="paint5_linear_25103_188393" x1="20.0582" y1="19.7448" x2="12.5002" y2="15.8148"
					gradientUnits="userSpaceOnUse">
					<stop stop-color="#C6CFDE" />
					<stop offset="1" stop-color="#C6CFDE" stop-opacity="0" />
				</linearGradient>
				<linearGradient id="paint6_linear_25103_188393" x1="9.96712" y1="19.0335" x2="7.66959" y2="17.5641"
					gradientUnits="userSpaceOnUse">
					<stop stop-color="#C6CFDE" />
					<stop offset="1" stop-color="#C6CFDE" stop-opacity="0" />
				</linearGradient>
				<linearGradient id="paint7_linear_25103_188393" x1="16.2477" y1="22.7771" x2="13.9592" y2="21.314"
					gradientUnits="userSpaceOnUse">
					<stop stop-color="#C6CFDE" />
					<stop offset="1" stop-color="#C6CFDE" stop-opacity="0" />
				</linearGradient>
				<linearGradient id="paint8_linear_25103_188393" x1="13.3595" y1="6.33686" x2="17.9786" y2="9.30587"
					gradientUnits="userSpaceOnUse">
					<stop stop-color="white" />
					<stop offset="1" stop-color="white" stop-opacity="0" />
				</linearGradient>
				<linearGradient id="paint9_linear_25103_188393" x1="19.9962" y1="19.7087" x2="10.8151" y2="14.5305"
					gradientUnits="userSpaceOnUse">
					<stop stop-color="#7C8391" />
					<stop offset="0.471674" stop-color="#C6CFDE" stop-opacity="0.85625" />
					<stop offset="1" stop-color="#C6CFDE" stop-opacity="0" />
				</linearGradient>
				<linearGradient id="paint10_linear_25103_188393" x1="7.68741" y1="29.0568" x2="12.3247" y2="20.2907"
					gradientUnits="userSpaceOnUse">
					<stop stop-color="#FF66A9" stop-opacity="0.7" />
					<stop offset="1" stop-color="#F53636" />
				</linearGradient>
				<linearGradient id="paint11_linear_25103_188393" x1="8.25342" y1="26.6582" x2="13.4829" y2="17.6004"
					gradientUnits="userSpaceOnUse">
					<stop stop-color="#FF66A9" stop-opacity="0" />
					<stop offset="0.699013" stop-color="#F5D636" />
				</linearGradient>
				<linearGradient id="paint12_linear_25103_188393" x1="9.25227" y1="24.7136" x2="12.8025" y2="18.5645"
					gradientUnits="userSpaceOnUse">
					<stop stop-color="#FFF966" stop-opacity="0" />
					<stop offset="0.70625" stop-color="#FFF7CD" />
				</linearGradient>
				<linearGradient id="paint13_linear_25103_188393" x1="10.0924" y1="23.1996" x2="12.47" y2="19.0814"
					gradientUnits="userSpaceOnUse">
					<stop stop-color="#FFFCBF" stop-opacity="0" />
					<stop offset="0.70625" stop-color="white" />
				</linearGradient>
				<linearGradient id="paint14_linear_25103_188393" x1="11.3135" y1="26.1397" x2="14.405" y2="21.7758"
					gradientUnits="userSpaceOnUse">
					<stop offset="0.0223951" stop-color="#FF66A9" stop-opacity="0" />
					<stop offset="1" stop-color="#F53636" />
				</linearGradient>
				<linearGradient id="paint15_linear_25103_188393" x1="13.1466" y1="24.2985" x2="14.8796" y2="21.2969"
					gradientUnits="userSpaceOnUse">
					<stop stop-color="#FFF966" stop-opacity="0" />
					<stop offset="0.70625" stop-color="#FFF7CD" />
				</linearGradient>
				<linearGradient id="paint16_linear_25103_188393" x1="13.5567" y1="23.5585" x2="14.7173" y2="21.5483"
					gradientUnits="userSpaceOnUse">
					<stop stop-color="#FFFCBF" stop-opacity="0" />
					<stop offset="0.70625" stop-color="white" />
				</linearGradient>
				<linearGradient id="paint17_linear_25103_188393" x1="5.0542" y1="22.5264" x2="8.14572" y2="18.1625"
					gradientUnits="userSpaceOnUse">
					<stop offset="0.0223951" stop-color="#FF66A9" stop-opacity="0" />
					<stop offset="1" stop-color="#F53636" />
				</linearGradient>
				<linearGradient id="paint18_linear_25103_188393" x1="6.88314" y1="20.7214" x2="8.6161" y2="17.7198"
					gradientUnits="userSpaceOnUse">
					<stop stop-color="#FFF966" stop-opacity="0" />
					<stop offset="0.70625" stop-color="#FFF7CD" />
				</linearGradient>
				<linearGradient id="paint19_linear_25103_188393" x1="7.29338" y1="19.9833" x2="8.45397" y2="17.9731"
					gradientUnits="userSpaceOnUse">
					<stop stop-color="#FFFCBF" stop-opacity="0" />
					<stop offset="0.70625" stop-color="white" />
				</linearGradient>
				<clipPath id="clip0_25103_188393">
					<rect width="29" height="29" fill="white" />
				</clipPath>
				<clipPath id="clip1_25103_188393">
					<rect width="11.9367" height="2.92329" fill="white" transform="translate(11.1931 17.0171) rotate(-60)" />
				</clipPath>
				<clipPath id="clip2_25103_188393">
					<rect width="11.9367" height="2.92329" fill="white" transform="translate(11.1931 17.0171) rotate(-60)" />
				</clipPath>
			</defs>
		</svg>