<svg fill="none" height="262" viewBox="0 0 262 262" width="262" xmlns="http://www.w3.org/2000/svg">
	<g clip-path="url(#clip0_25324_279068)">
		<g filter="url(#filter0_i_25324_279068)">
			<circle cx="131.203" cy="130.843" fill="url(#paint0_radial_25324_279068)" r="130.561"/>
		</g>
		<mask height="262" id="mask0_25324_279068" maskUnits="userSpaceOnUse" style="mask-type:alpha" width="262" x="0"
			  y="0">
			<circle cx="131.203" cy="130.844" fill="url(#paint1_radial_25324_279068)" r="130.561"/>
		</mask>
		<g mask="url(#mask0_25324_279068)">
			<path
				d="M209.538 59.8754L214.239 58.3296C214.579 58.2217 214.579 57.6825 214.239 57.5747L209.538 56.0289C209.417 55.993 209.329 55.8971 209.296 55.7653L207.879 50.6487C207.78 50.2773 207.286 50.2773 207.187 50.6487L205.77 55.7653C205.737 55.8971 205.649 55.993 205.529 56.0289L200.838 57.5747C200.498 57.6825 200.498 58.2217 200.838 58.3296L205.54 59.8754C205.66 59.9113 205.748 60.0072 205.781 60.139L207.198 65.2675C207.297 65.639 207.791 65.639 207.89 65.2675L209.307 60.139C209.329 60.0072 209.417 59.9113 209.538 59.8754Z"
				fill="#FED75B"/>
			<path
				d="M212.541 219.246L216.53 217.934C216.819 217.843 216.819 217.385 216.53 217.294L212.541 215.982C212.439 215.952 212.364 215.87 212.336 215.758L211.134 211.417C211.05 211.102 210.631 211.102 210.547 211.417L209.345 215.758C209.317 215.87 209.242 215.952 209.14 215.982L205.16 217.294C204.871 217.385 204.871 217.843 205.16 217.934L209.149 219.246C209.251 219.276 209.326 219.358 209.354 219.469L210.556 223.821C210.64 224.136 211.06 224.136 211.143 223.821L212.346 219.469C212.364 219.358 212.439 219.276 212.541 219.246Z"
				fill="#FED75B"/>
			<mask height="39" id="mask1_25324_279068" maskUnits="userSpaceOnUse" style="mask-type:luminance" width="35"
				  x="100" y="180">
				<path d="M100.557 218.946V180.215L134.54 199.957L100.557 218.946Z" fill="white"/>
			</mask>
			<g mask="url(#mask1_25324_279068)">
				<path d="M100.557 218.946V180.215L134.54 199.957L100.557 218.946Z"
					  fill="url(#paint2_linear_25324_279068)"/>
			</g>
			<mask height="68" id="mask2_25324_279068" maskUnits="userSpaceOnUse" style="mask-type:luminance" width="17"
				  x="84" y="159">
				<path
					d="M86.7111 226.33C85.4985 226.33 84.3887 225.361 84.3887 224.008V159.705L84.389 170.803L100.556 180.196V218.927L87.8376 226.034C87.4722 226.236 87.0868 226.33 86.7111 226.33Z"
					fill="white"/>
			</mask>
			<g mask="url(#mask2_25324_279068)">
				<path
					d="M86.7111 226.33C85.4985 226.33 84.3887 225.361 84.3887 224.008V159.705L84.389 170.803L100.556 180.196V218.927L87.8376 226.034C87.4722 226.236 87.0868 226.33 86.7111 226.33Z"
					fill="url(#paint3_linear_25324_279068)"/>
			</g>
			<mask height="28" id="mask3_25324_279068" maskUnits="userSpaceOnUse" style="mask-type:luminance" width="51"
				  x="134" y="199">
				<path
					d="M182.376 226.331C182.015 226.331 181.645 226.245 181.293 226.055C181.643 226.237 182.009 226.322 182.368 226.322C182.993 226.322 183.592 226.063 184.023 225.626C183.597 226.069 182.999 226.331 182.376 226.331ZM174.795 222.424L134.54 199.931L168.09 218.675L174.795 222.424Z"
					fill="white"/>
			</mask>
			<g mask="url(#mask3_25324_279068)">
				<path
					d="M182.376 226.331C182.015 226.331 181.645 226.245 181.293 226.055C181.643 226.237 182.009 226.322 182.368 226.322C182.993 226.322 183.592 226.063 184.023 225.626C183.597 226.069 182.999 226.331 182.376 226.331ZM174.795 222.424L134.54 199.931L168.09 218.675L174.795 222.424Z"
					fill="url(#paint4_linear_25324_279068)"/>
			</g>
			<mask height="50" id="mask4_25324_279068" maskUnits="userSpaceOnUse" style="mask-type:luminance" width="69"
				  x="100" y="169">
				<path
					d="M168.09 218.703L134.54 199.958L100.557 180.216V169.059L131.283 186.8C132.254 187.36 133.338 187.639 134.422 187.639C135.505 187.639 136.591 187.36 137.56 186.8L168.09 169.173V218.703Z"
					fill="white"/>
			</mask>
			<g mask="url(#mask4_25324_279068)">
				<path d="M170.695 222.868V154.058L86.4023 153.198V174.701L170.695 222.868Z"
					  fill="url(#paint5_linear_25324_279068)"/>
			</g>
			<mask height="22" id="mask5_25324_279068" maskUnits="userSpaceOnUse" style="mask-type:luminance" width="17"
				  x="84" y="159">
				<path d="M100.556 180.186L84.3887 170.793V159.695L100.556 169.029V180.186Z" fill="white"/>
			</mask>
			<g mask="url(#mask5_25324_279068)">
				<path d="M82.9658 171.845V158.358L101.889 168.955V182.442L82.9658 171.845Z"
					  fill="url(#paint6_linear_25324_279068)"/>
			</g>
			<mask height="68" id="mask6_25324_279068" maskUnits="userSpaceOnUse" style="mask-type:luminance" width="17"
				  x="168" y="159">
				<path
					d="M182.361 226.33C182.003 226.33 181.636 226.245 181.287 226.063C181.269 226.051 181.252 226.042 181.234 226.034L174.788 222.432L168.084 218.684V169.154L184.683 159.57V224.008C184.683 224.663 184.422 225.226 184.017 225.634C183.585 226.072 182.986 226.33 182.361 226.33Z"
					fill="white"/>
			</mask>
			<g mask="url(#mask6_25324_279068)">
				<path
					d="M182.361 226.33C182.003 226.33 181.636 226.245 181.287 226.063C181.269 226.051 181.252 226.042 181.234 226.034L174.788 222.432L168.084 218.684V169.154L184.683 159.57V224.008C184.683 224.663 184.422 225.226 184.017 225.634C183.585 226.072 182.986 226.33 182.361 226.33Z"
					fill="url(#paint7_linear_25324_279068)"/>
			</g>
			<mask height="108" id="mask7_25324_279068" maskUnits="userSpaceOnUse" style="mask-type:luminance" width="129"
				  x="70" y="80">
				<path
					d="M134.414 187.621C133.33 187.621 132.246 187.342 131.275 186.781L100.549 169.04L84.3813 159.706L83.7141 159.322L73.1407 153.216C71.1993 152.095 70.002 150.025 70.002 147.783V80.653C70.002 80.6324 70.0023 80.6119 70.0023 80.5943V144.645C70.0023 146.764 71.1332 148.722 72.9695 149.785L131.447 183.546C132.365 184.075 133.389 184.342 134.414 184.342C135.439 184.342 136.463 184.075 137.382 183.546L195.858 149.785C197.693 148.722 198.826 146.764 198.826 144.645V80.5943C198.826 80.6119 198.826 80.6324 198.826 80.653V147.783C198.826 150.025 197.628 152.095 195.688 153.216L184.916 159.433L184.681 159.571L168.082 169.155L137.552 186.781C136.583 187.342 135.497 187.621 134.414 187.621Z"
					fill="white"/>
			</mask>
			<g mask="url(#mask7_25324_279068)">
				<path
					d="M134.414 187.621C133.33 187.621 132.246 187.342 131.275 186.781L100.549 169.04L84.3813 159.706L83.7141 159.322L73.1407 153.216C71.1993 152.095 70.002 150.025 70.002 147.783V80.653C70.002 80.6324 70.0023 80.6119 70.0023 80.5943V144.645C70.0023 146.764 71.1332 148.722 72.9695 149.785L131.447 183.546C132.365 184.075 133.389 184.342 134.414 184.342C135.439 184.342 136.463 184.075 137.382 183.546L195.858 149.785C197.693 148.722 198.826 146.764 198.826 144.645V80.5943C198.826 80.6119 198.826 80.6324 198.826 80.653V147.783C198.826 150.025 197.628 152.095 195.688 153.216L184.916 159.433L184.681 159.571L168.082 169.155L137.552 186.781C136.583 187.342 135.497 187.621 134.414 187.621Z"
					fill="url(#paint8_linear_25324_279068)"/>
			</g>
			<mask height="148" id="mask8_25324_279068" maskUnits="userSpaceOnUse" style="mask-type:luminance" width="129"
				  x="70" y="37">
				<path
					d="M134.414 184.326C133.389 184.326 132.365 184.059 131.447 183.531L72.9692 149.769C71.1329 148.707 70.002 146.749 70.002 144.629V80.5786V77.1061C70.002 74.9839 71.1329 73.0261 72.9692 71.9665L131.447 38.2048C132.365 37.6735 133.389 37.4094 134.414 37.4094C135.438 37.4094 136.463 37.6735 137.381 38.2048L195.858 71.9665C197.693 73.0261 198.826 74.9839 198.826 77.1061V80.5786V144.629C198.826 146.749 197.693 148.707 195.858 149.769L137.381 183.531C136.463 184.059 135.438 184.326 134.414 184.326ZM134.414 48.9978C133.389 48.9978 132.365 49.265 131.447 49.7934L83.0061 77.7607C81.1704 78.8203 80.0391 80.7811 80.0391 82.9004V138.835C80.0391 140.954 81.1704 142.912 83.0061 143.972L131.447 171.939C132.365 172.471 133.389 172.735 134.414 172.735C135.438 172.735 136.463 172.471 137.381 171.939L185.822 143.972C187.657 142.912 188.787 140.954 188.787 138.835V82.9004C188.787 80.7811 187.657 78.8203 185.822 77.7607L137.381 49.7934C136.463 49.265 135.438 48.9978 134.414 48.9978Z"
					fill="white"/>
			</mask>
			<g mask="url(#mask8_25324_279068)">
				<path
					d="M134.414 184.326C133.389 184.326 132.365 184.059 131.447 183.531L72.9692 149.769C71.1329 148.707 70.002 146.749 70.002 144.629V80.5786V77.1061C70.002 74.9839 71.1329 73.0261 72.9692 71.9665L131.447 38.2048C132.365 37.6735 133.389 37.4094 134.414 37.4094C135.438 37.4094 136.463 37.6735 137.381 38.2048L195.858 71.9665C197.693 73.0261 198.826 74.9839 198.826 77.1061V80.5786V144.629C198.826 146.749 197.693 148.707 195.858 149.769L137.381 183.531C136.463 184.059 135.438 184.326 134.414 184.326ZM134.414 48.9978C133.389 48.9978 132.365 49.265 131.447 49.7934L83.0061 77.7607C81.1704 78.8203 80.0391 80.7811 80.0391 82.9004V138.835C80.0391 140.954 81.1704 142.912 83.0061 143.972L131.447 171.939C132.365 172.471 133.389 172.735 134.414 172.735C135.438 172.735 136.463 172.471 137.381 171.939L185.822 143.972C187.657 142.912 188.787 140.954 188.787 138.835V82.9004C188.787 80.7811 187.657 78.8203 185.822 77.7607L137.381 49.7934C136.463 49.265 135.438 48.9978 134.414 48.9978Z"
					fill="url(#paint9_linear_25324_279068)"/>
			</g>
			<mask height="125" id="mask9_25324_279068" maskUnits="userSpaceOnUse" style="mask-type:luminance" width="109"
				  x="80" y="48">
				<path
					d="M134.429 172.729C133.405 172.729 132.38 172.464 131.462 171.933L83.0217 143.966C81.186 142.906 80.0547 140.948 80.0547 138.829V82.8942C80.0547 80.7749 81.186 78.8141 83.0217 77.7545L131.462 49.7871C132.38 49.2588 133.405 48.9916 134.429 48.9916C135.454 48.9916 136.478 49.2588 137.397 49.7871L185.838 77.7545C187.672 78.8141 188.803 80.7749 188.803 82.8942V138.829C188.803 140.948 187.672 142.906 185.838 143.966L137.397 171.933C136.478 172.464 135.454 172.729 134.429 172.729Z"
					fill="white"/>
			</mask>
			<g mask="url(#mask9_25324_279068)">
				<path
					d="M134.43 172.729C133.406 172.729 132.381 172.465 131.463 171.934L83.0227 143.966C81.1869 142.907 80.0557 140.949 80.0557 138.829V82.8947C80.0557 80.7754 81.1869 78.8146 83.0227 77.755L131.463 49.7876C132.381 49.2593 133.406 48.9921 134.43 48.9921C135.455 48.9921 136.479 49.2593 137.398 49.7876L185.839 77.755C187.673 78.8146 188.804 80.7754 188.804 82.8947V138.829C188.804 140.949 187.673 142.907 185.839 143.966L137.398 171.934C136.479 172.465 135.455 172.729 134.43 172.729Z"
					fill="url(#paint10_linear_25324_279068)"/>
				<g style="mix-blend-mode:hard-light">
					<path d="M167.727 196.531L41.2891 125.141V142.343L167.727 215.454V196.531Z" fill="#CBF3FE"/>
				</g>
			</g>
			<mask height="17" id="mask10_25324_279068" maskUnits="userSpaceOnUse" style="mask-type:luminance" width="13"
				  x="100" y="97">
				<path d="M104.377 97.4713V110.372H112.091V113.298H100.896V97.4713H104.377Z" fill="white"/>
			</mask>
			<g mask="url(#mask10_25324_279068)">
				<path d="M104.377 97.4713V110.372H112.091V113.298H100.896V97.4713H104.377Z"
					  fill="url(#paint11_linear_25324_279068)"/>
			</g>
			<mask height="17" id="mask11_25324_279068" maskUnits="userSpaceOnUse" style="mask-type:luminance" width="13"
				  x="114" y="97">
				<path
					d="M125.885 97.4713V100.398H117.527V103.788H125.197V106.494H117.527V110.372H126.062V113.298H114.047V97.4713H125.885Z"
					fill="white"/>
			</mask>
			<g mask="url(#mask11_25324_279068)">
				<path
					d="M125.885 97.4713V100.398H117.527V103.788H125.197V106.494H117.527V110.372H126.062V113.298H114.047V97.4713H125.885Z"
					fill="url(#paint12_linear_25324_279068)"/>
			</g>
			<mask height="17" id="mask12_25324_279068" maskUnits="userSpaceOnUse" style="mask-type:luminance" width="16"
				  x="126" y="97">
				<path
					d="M131.845 113.299L126.724 97.4718H130.293L133.817 108.599H133.862L137.431 97.4718H141.02L135.769 113.299H131.845Z"
					fill="white"/>
			</mask>
			<g mask="url(#mask12_25324_279068)">
				<path
					d="M131.845 113.299L126.724 97.4718H130.293L133.817 108.599H133.862L137.431 97.4718H141.02L135.769 113.299H131.845Z"
					fill="url(#paint13_linear_25324_279068)"/>
			</g>
			<mask height="17" id="mask13_25324_279068" maskUnits="userSpaceOnUse" style="mask-type:luminance" width="13"
				  x="142" y="97">
				<path
					d="M154.205 97.4718V100.398H145.848V103.789H153.518V106.495H145.848V110.372H154.381V113.299H142.367V97.4718H154.205Z"
					fill="white"/>
			</mask>
			<g mask="url(#mask13_25324_279068)">
				<path
					d="M154.205 97.4718V100.398H145.848V103.789H153.518V106.495H145.848V110.372H154.381V113.299H142.367V97.4718H154.205Z"
					fill="url(#paint14_linear_25324_279068)"/>
			</g>
			<mask height="17" id="mask14_25324_279068" maskUnits="userSpaceOnUse" style="mask-type:luminance" width="12"
				  x="156" y="97">
				<path d="M160.221 97.4713V110.372H167.935V113.298H156.74V97.4713H160.221Z" fill="white"/>
			</mask>
			<g mask="url(#mask14_25324_279068)">
				<path d="M160.221 97.4713V110.372H167.935V113.298H156.74V97.4713H160.221Z"
					  fill="url(#paint15_linear_25324_279068)"/>
			</g>
			<mask height="16" id="mask15_25324_279068" maskUnits="userSpaceOnUse" style="mask-type:luminance" width="12"
				  x="128" y="117">
				<path
					d="M128.83 120.966C129.066 120.206 129.421 119.543 129.895 118.97C130.367 118.404 130.962 117.961 131.679 117.641C132.396 117.324 133.22 117.165 134.151 117.165C134.86 117.165 135.535 117.277 136.178 117.497C136.821 117.72 137.387 118.037 137.875 118.451C138.362 118.865 138.749 119.375 139.04 119.98C139.328 120.588 139.471 121.266 139.471 122.02C139.471 122.804 139.345 123.476 139.093 124.037C138.843 124.6 138.512 125.099 138.098 125.534C137.684 125.971 137.214 126.364 136.689 126.719C136.163 127.075 135.635 127.427 135.104 127.773C134.572 128.12 134.054 128.492 133.552 128.892C133.05 129.291 132.606 129.758 132.222 130.289H139.56V132.992H128.165C128.165 132.091 128.294 131.307 128.553 130.644C128.812 129.978 129.163 129.385 129.606 128.859C130.049 128.334 130.57 127.85 131.169 127.406C131.768 126.963 132.399 126.514 133.064 126.053C133.404 125.818 133.766 125.578 134.151 125.334C134.534 125.09 134.887 124.82 135.204 124.524C135.521 124.23 135.788 123.896 136.002 123.526C136.216 123.159 136.322 122.736 136.322 122.264C136.322 121.509 136.105 120.922 135.67 120.503C135.233 120.08 134.675 119.869 133.995 119.869C133.537 119.869 133.149 119.977 132.832 120.191C132.514 120.406 132.259 120.687 132.067 121.034C131.875 121.38 131.738 121.765 131.657 122.187C131.575 122.607 131.535 123.024 131.535 123.438H128.52C128.49 122.551 128.594 121.729 128.83 120.966Z"
					fill="white"/>
			</mask>
			<g mask="url(#mask15_25324_279068)">
				<path
					d="M128.83 120.966C129.066 120.206 129.421 119.543 129.895 118.97C130.367 118.404 130.962 117.961 131.679 117.641C132.396 117.324 133.22 117.165 134.151 117.165C134.86 117.165 135.535 117.277 136.178 117.497C136.821 117.72 137.387 118.037 137.875 118.451C138.362 118.865 138.749 119.375 139.04 119.98C139.328 120.588 139.471 121.266 139.471 122.02C139.471 122.804 139.345 123.476 139.093 124.037C138.843 124.6 138.512 125.099 138.098 125.534C137.684 125.971 137.214 126.364 136.689 126.719C136.163 127.075 135.635 127.427 135.104 127.773C134.572 128.12 134.054 128.492 133.552 128.892C133.05 129.291 132.606 129.758 132.222 130.289H139.56V132.992H128.165C128.165 132.091 128.294 131.307 128.553 130.644C128.812 129.978 129.163 129.385 129.606 128.859C130.049 128.334 130.57 127.85 131.169 127.406C131.768 126.963 132.399 126.514 133.064 126.053C133.404 125.818 133.766 125.578 134.151 125.334C134.534 125.09 134.887 124.82 135.204 124.524C135.521 124.23 135.788 123.896 136.002 123.526C136.216 123.159 136.322 122.736 136.322 122.264C136.322 121.509 136.105 120.922 135.67 120.503C135.233 120.08 134.675 119.869 133.995 119.869C133.537 119.869 133.149 119.977 132.832 120.191C132.514 120.406 132.259 120.687 132.067 121.034C131.875 121.38 131.738 121.765 131.657 122.187C131.575 122.607 131.535 123.024 131.535 123.438H128.52C128.49 122.551 128.594 121.729 128.83 120.966Z"
					fill="url(#paint16_linear_25324_279068)"/>
			</g>
		</g>
		<path
			d="M53.2355 72.9827L60.0261 70.7499C60.5179 70.5942 60.5179 69.8153 60.0261 69.6595L53.2355 67.4268C53.0609 67.3748 52.934 67.2364 52.8864 67.046L50.8397 59.6553C50.6969 59.1188 49.983 59.1188 49.8402 59.6553L47.7935 67.046C47.7459 67.2364 47.6189 67.3748 47.4444 67.4268L40.6697 69.6595C40.1778 69.8153 40.1778 70.5942 40.6697 70.7499L47.4603 72.9827C47.6348 73.0346 47.7617 73.1731 47.8093 73.3635L49.856 80.7714C49.9988 81.308 50.7128 81.308 50.8556 80.7714L52.9023 73.3635C52.934 73.1731 53.0609 73.0346 53.2355 72.9827Z"
			fill="#FED75B"/>
	</g>
	<defs>
		<filter color-interpolation-filters="sRGB" filterUnits="userSpaceOnUse" height="267.867" id="filter0_i_25324_279068" width="261.122"
				x="0.641602" y="0.281738">
			<feFlood flood-opacity="0" result="BackgroundImageFix"/>
			<feBlend in="SourceGraphic" in2="BackgroundImageFix" mode="normal" result="shape"/>
			<feColorMatrix in="SourceAlpha" result="hardAlpha" type="matrix"
						   values="0 0 0 0 0 0 0 0 0 0 0 0 0 0 0 0 0 0 127 0"/>
			<feOffset dy="6.7449"/>
			<feGaussianBlur stdDeviation="26.9796"/>
			<feComposite in2="hardAlpha" k2="-1" k3="1" operator="arithmetic"/>
			<feColorMatrix type="matrix" values="0 0 0 0 0.00937501 0 0 0 0 0.0973751 0 0 0 0 0.25 0 0 0 0.38 0"/>
			<feBlend in2="shape" mode="normal" result="effect1_innerShadow_25324_279068"/>
		</filter>
		<radialGradient cx="0" cy="0" gradientTransform="translate(131.203 130.843) rotate(90) scale(113.454)" gradientUnits="userSpaceOnUse" id="paint0_radial_25324_279068"
						r="1">
			<stop stop-color="#2053A9"/>
			<stop offset="1" stop-color="#082352"/>
		</radialGradient>
		<radialGradient cx="0" cy="0" gradientTransform="translate(131.203 130.844) rotate(90) scale(130.561)" gradientUnits="userSpaceOnUse" id="paint1_radial_25324_279068"
						r="1">
			<stop stop-color="#3164BB"/>
			<stop offset="1" stop-color="#0A3070"/>
		</radialGradient>
		<linearGradient gradientUnits="userSpaceOnUse" id="paint2_linear_25324_279068" x1="84.3894" x2="184.688" y1="175.19"
						y2="175.19">
			<stop stop-color="#00EAE5"/>
			<stop offset="0.99452" stop-color="#008EFF"/>
			<stop offset="1" stop-color="#008EFF"/>
		</linearGradient>
		<linearGradient gradientUnits="userSpaceOnUse" id="paint3_linear_25324_279068" x1="83.7215" x2="100.556" y1="189.66"
						y2="189.66">
			<stop stop-color="#1BCCEF"/>
			<stop offset="0.99452" stop-color="#0EB0F2"/>
			<stop offset="1" stop-color="#0EB0F2"/>
		</linearGradient>
		<linearGradient gradientUnits="userSpaceOnUse" id="paint4_linear_25324_279068" x1="84.3898" x2="184.676" y1="190.206"
						y2="190.206">
			<stop stop-color="#7FEDF8"/>
			<stop offset="0.99452" stop-color="#7FBBFF"/>
			<stop offset="1" stop-color="#7FBBFF"/>
		</linearGradient>
		<linearGradient gradientUnits="userSpaceOnUse" id="paint5_linear_25324_279068" x1="86.4023" x2="170.695" y1="187.603"
						y2="187.603">
			<stop stop-color="#0CD1F1"/>
			<stop offset="1" stop-color="#0094FC"/>
		</linearGradient>
		<linearGradient gradientUnits="userSpaceOnUse" id="paint6_linear_25324_279068" x1="82.9658" x2="101.889" y1="170.251"
						y2="170.251">
			<stop stop-color="#0DD3F1"/>
			<stop offset="1" stop-color="#07C0F3"/>
		</linearGradient>
		<linearGradient gradientUnits="userSpaceOnUse" id="paint7_linear_25324_279068" x1="168.084" x2="184.918" y1="190.05"
						y2="190.05">
			<stop stop-color="#0EB0F2"/>
			<stop offset="0.00547981" stop-color="#0EB0F2"/>
			<stop offset="1" stop-color="#1BCCEF"/>
		</linearGradient>
		<linearGradient gradientUnits="userSpaceOnUse" id="paint8_linear_25324_279068" x1="68.2029" x2="197.027" y1="114.218"
						y2="114.218">
			<stop stop-color="#1A9AFF"/>
			<stop offset="0.99452" stop-color="#1799FF"/>
			<stop offset="1" stop-color="#1799FF"/>
		</linearGradient>
		<linearGradient gradientUnits="userSpaceOnUse" id="paint9_linear_25324_279068" x1="121.836" x2="146.991" y1="39.5345"
						y2="182.198">
			<stop stop-color="#D1FDFC"/>
			<stop offset="1" stop-color="#8FD8FF"/>
		</linearGradient>
		<linearGradient gradientUnits="userSpaceOnUse" id="paint10_linear_25324_279068" x1="121.852" x2="147.008" y1="39.5287"
						y2="182.193">
			<stop stop-color="#D3F7FD"/>
			<stop offset="1" stop-color="#C5EFFD"/>
		</linearGradient>
		<linearGradient gradientUnits="userSpaceOnUse" id="paint11_linear_25324_279068" x1="100.896" x2="112.091" y1="105.385"
						y2="105.385">
			<stop stop-color="#1A9AFF"/>
			<stop offset="0.99452" stop-color="#1799FF"/>
			<stop offset="1" stop-color="#1799FF"/>
		</linearGradient>
		<linearGradient gradientUnits="userSpaceOnUse" id="paint12_linear_25324_279068" x1="114.047" x2="126.062" y1="105.385"
						y2="105.385">
			<stop stop-color="#1A9AFF"/>
			<stop offset="0.99452" stop-color="#1799FF"/>
			<stop offset="1" stop-color="#1799FF"/>
		</linearGradient>
		<linearGradient gradientUnits="userSpaceOnUse" id="paint13_linear_25324_279068" x1="126.724" x2="141.022" y1="105.385"
						y2="105.385">
			<stop stop-color="#1A9AFF"/>
			<stop offset="0.99452" stop-color="#1799FF"/>
			<stop offset="1" stop-color="#1799FF"/>
		</linearGradient>
		<linearGradient gradientUnits="userSpaceOnUse" id="paint14_linear_25324_279068" x1="142.367" x2="154.382" y1="105.385"
						y2="105.385">
			<stop stop-color="#1A9AFF"/>
			<stop offset="0.99452" stop-color="#1799FF"/>
			<stop offset="1" stop-color="#1799FF"/>
		</linearGradient>
		<linearGradient gradientUnits="userSpaceOnUse" id="paint15_linear_25324_279068" x1="156.74" x2="167.935" y1="105.385"
						y2="105.385">
			<stop stop-color="#1A9AFF"/>
			<stop offset="0.99452" stop-color="#1799FF"/>
			<stop offset="1" stop-color="#1799FF"/>
		</linearGradient>
		<linearGradient gradientUnits="userSpaceOnUse" id="paint16_linear_25324_279068" x1="128.165" x2="139.559" y1="125.079"
						y2="125.079">
			<stop stop-color="#1A9AFF"/>
			<stop offset="0.99452" stop-color="#1799FF"/>
			<stop offset="1" stop-color="#1799FF"/>
		</linearGradient>
		<clipPath id="clip0_25324_279068">
			<rect fill="white" height="262" width="262"/>
		</clipPath>
	</defs>
</svg>
