<svg width="37" height="37" viewBox="0 0 37 37" fill="none" xmlns="http://www.w3.org/2000/svg">
<path d="M18.5569 36.7301H18.4243C9.85282 36.7081 4.10902 34.9309 2.91608 33.8338C1.65686 32.7148 0 26.9222 0 18.365C0 9.82979 1.65686 4.01529 2.91608 2.89628C4.10902 1.7992 9.87491 0.0219415 18.4243 0H18.5569C27.1284 0.0219415 32.8722 1.7992 34.0651 2.89628C35.3244 4.01529 36.9812 9.82979 36.9812 18.365C36.9812 26.9003 35.3244 32.7148 34.0651 33.8338C32.8722 34.9528 27.1284 36.7301 18.5569 36.7301Z" fill="url(#paint0_linear)"/>
<path d="M27.0178 19.4619L26.3109 10.8828H22.0472C22.0472 10.8828 18.7998 17.4872 18.5126 18.3868H18.4684L15.0442 10.8828H10.7585L10.0515 18.321L9.45508 25.8689H12.0619C13.1885 25.8689 13.6304 25.3861 13.7187 24.2013C13.7187 24.2013 14.1606 17.2897 14.0943 16.2804H14.1385L14.271 16.7412C14.4478 17.3556 16.8778 23.2578 16.8778 23.2578H20.0811C20.0811 23.2578 22.5112 17.4433 22.8204 16.2804H22.8646L23.2402 24.2013C23.3285 25.3861 23.7925 25.8689 24.897 25.8689H27.5038L27.0178 19.4619Z" fill="white"/>
<defs>
<linearGradient id="paint0_linear" x1="2.92003" y1="2.90209" x2="33.8554" y2="34.0489" gradientUnits="userSpaceOnUse">
<stop stop-color="#05C2FF"/>
<stop offset="1" stop-color="#0357EE"/>
</linearGradient>
</defs>
</svg>
